# xmcd
# 
# Track frame offsets:
#     150
#     13571
#     29555
#     43299
#     62430
#     79232
#     94144
# 
# Disc length: 1482
# 
# Revision: 0
# Processed by: cddbd v1.5.2PL0 Copyright (c) Steve Scherf et al.
# Submitted via: fre:ac v1.0.17
# 
DISCID=5405c807
DTITLE=Seblast and DJ Laph - Boom Country Folk et Rap
DYEAR=2013
DGENRE=Country/Rap
TTITLE0=L'homme
TTITLE1=Autour d'un verre
TTITLE2=Vis ton chemin
TTITLE3=Mes démons
TTITLE4=Femme indépendante
TTITLE5=Profilage musical
TTITLE6=Donnez-moi une bouée
EXTD=
EXTT0=
EXTT1=
EXTT2=
EXTT3=
EXTT4=
EXTT5=
EXTT6=
PLAYORDER=
